<?xml version="1.0" encoding="utf-8" standalone="no"?>
<!DOCTYPE svg PUBLIC "-//W3C//DTD SVG 1.1//EN"
  "http://www.w3.org/Graphics/SVG/1.1/DTD/svg11.dtd">
<svg xmlns:xlink="http://www.w3.org/1999/xlink" width="345.6pt" height="252pt" viewBox="0 0 345.6 252" xmlns="http://www.w3.org/2000/svg" version="1.1">
 <metadata>
  <rdf:RDF xmlns:dc="http://purl.org/dc/elements/1.1/" xmlns:cc="http://creativecommons.org/ns#" xmlns:rdf="http://www.w3.org/1999/02/22-rdf-syntax-ns#">
   <cc:Work>
    <dc:type rdf:resource="http://purl.org/dc/dcmitype/StillImage"/>
    <dc:date>2024-06-22T17:09:05.745554</dc:date>
    <dc:format>image/svg+xml</dc:format>
    <dc:creator>
     <cc:Agent>
      <dc:title>Matplotlib v3.7.5, https://matplotlib.org/</dc:title>
     </cc:Agent>
    </dc:creator>
   </cc:Work>
  </rdf:RDF>
 </metadata>
 <defs>
  <style type="text/css">*{stroke-linejoin: round; stroke-linecap: butt}</style>
 </defs>
 <g id="figure_1">
  <g id="patch_1">
   <path d="M 0 252 
L 345.6 252 
L 345.6 0 
L 0 0 
z
" style="fill: #ffffff"/>
  </g>
  <g id="axes_1">
   <g id="patch_2">
    <path d="M 44.442964 212.56 
L 335.888093 212.56 
L 335.888093 24.36 
L 44.442964 24.36 
z
" style="fill: #ffffff"/>
   </g>
   <g id="matplotlib.axis_1">
    <g id="xtick_1">
     <g id="line2d_1">
      <defs>
       <path id="m06b81d8f69" d="M 0 0 
L 0 3.5 
" style="stroke: #000000; stroke-width: 0.8"/>
      </defs>
      <g>
       <use xlink:href="#m06b81d8f69" x="57.69047" y="212.56" style="stroke: #000000; stroke-width: 0.8"/>
      </g>
     </g>
     <g id="text_1">
      <!-- 1 -->
      <g transform="translate(54.827345 226.398594) scale(0.09 -0.09)">
       <defs>
        <path id="DejaVuSans-31" d="M 794 531 
L 1825 531 
L 1825 4091 
L 703 3866 
L 703 4441 
L 1819 4666 
L 2450 4666 
L 2450 531 
L 3481 531 
L 3481 0 
L 794 0 
L 794 531 
z
" transform="scale(0.015625)"/>
       </defs>
       <use xlink:href="#DejaVuSans-31"/>
      </g>
     </g>
    </g>
    <g id="xtick_2">
     <g id="line2d_2">
      <g>
       <use xlink:href="#m06b81d8f69" x="123.927999" y="212.56" style="stroke: #000000; stroke-width: 0.8"/>
      </g>
     </g>
     <g id="text_2">
      <!-- 2 -->
      <g transform="translate(121.064874 226.398594) scale(0.09 -0.09)">
       <defs>
        <path id="DejaVuSans-32" d="M 1228 531 
L 3431 531 
L 3431 0 
L 469 0 
L 469 531 
Q 828 903 1448 1529 
Q 2069 2156 2228 2338 
Q 2531 2678 2651 2914 
Q 2772 3150 2772 3378 
Q 2772 3750 2511 3984 
Q 2250 4219 1831 4219 
Q 1534 4219 1204 4116 
Q 875 4013 500 3803 
L 500 4441 
Q 881 4594 1212 4672 
Q 1544 4750 1819 4750 
Q 2544 4750 2975 4387 
Q 3406 4025 3406 3419 
Q 3406 3131 3298 2873 
Q 3191 2616 2906 2266 
Q 2828 2175 2409 1742 
Q 1991 1309 1228 531 
z
" transform="scale(0.015625)"/>
       </defs>
       <use xlink:href="#DejaVuSans-32"/>
      </g>
     </g>
    </g>
    <g id="xtick_3">
     <g id="line2d_3">
      <g>
       <use xlink:href="#m06b81d8f69" x="190.165529" y="212.56" style="stroke: #000000; stroke-width: 0.8"/>
      </g>
     </g>
     <g id="text_3">
      <!-- 4 -->
      <g transform="translate(187.302404 226.398594) scale(0.09 -0.09)">
       <defs>
        <path id="DejaVuSans-34" d="M 2419 4116 
L 825 1625 
L 2419 1625 
L 2419 4116 
z
M 2253 4666 
L 3047 4666 
L 3047 1625 
L 3713 1625 
L 3713 1100 
L 3047 1100 
L 3047 0 
L 2419 0 
L 2419 1100 
L 313 1100 
L 313 1709 
L 2253 4666 
z
" transform="scale(0.015625)"/>
       </defs>
       <use xlink:href="#DejaVuSans-34"/>
      </g>
     </g>
    </g>
    <g id="xtick_4">
     <g id="line2d_4">
      <g>
       <use xlink:href="#m06b81d8f69" x="256.403058" y="212.56" style="stroke: #000000; stroke-width: 0.8"/>
      </g>
     </g>
     <g id="text_4">
      <!-- 8 -->
      <g transform="translate(253.539933 226.398594) scale(0.09 -0.09)">
       <defs>
        <path id="DejaVuSans-38" d="M 2034 2216 
Q 1584 2216 1326 1975 
Q 1069 1734 1069 1313 
Q 1069 891 1326 650 
Q 1584 409 2034 409 
Q 2484 409 2743 651 
Q 3003 894 3003 1313 
Q 3003 1734 2745 1975 
Q 2488 2216 2034 2216 
z
M 1403 2484 
Q 997 2584 770 2862 
Q 544 3141 544 3541 
Q 544 4100 942 4425 
Q 1341 4750 2034 4750 
Q 2731 4750 3128 4425 
Q 3525 4100 3525 3541 
Q 3525 3141 3298 2862 
Q 3072 2584 2669 2484 
Q 3125 2378 3379 2068 
Q 3634 1759 3634 1313 
Q 3634 634 3220 271 
Q 2806 -91 2034 -91 
Q 1263 -91 848 271 
Q 434 634 434 1313 
Q 434 1759 690 2068 
Q 947 2378 1403 2484 
z
M 1172 3481 
Q 1172 3119 1398 2916 
Q 1625 2713 2034 2713 
Q 2441 2713 2670 2916 
Q 2900 3119 2900 3481 
Q 2900 3844 2670 4047 
Q 2441 4250 2034 4250 
Q 1625 4250 1398 4047 
Q 1172 3844 1172 3481 
z
" transform="scale(0.015625)"/>
       </defs>
       <use xlink:href="#DejaVuSans-38"/>
      </g>
     </g>
    </g>
    <g id="xtick_5">
     <g id="line2d_5">
      <g>
       <use xlink:href="#m06b81d8f69" x="322.640587" y="212.56" style="stroke: #000000; stroke-width: 0.8"/>
      </g>
     </g>
     <g id="text_5">
      <!-- 16 -->
      <g transform="translate(316.914337 226.398594) scale(0.09 -0.09)">
       <defs>
        <path id="DejaVuSans-36" d="M 2113 2584 
Q 1688 2584 1439 2293 
Q 1191 2003 1191 1497 
Q 1191 994 1439 701 
Q 1688 409 2113 409 
Q 2538 409 2786 701 
Q 3034 994 3034 1497 
Q 3034 2003 2786 2293 
Q 2538 2584 2113 2584 
z
M 3366 4563 
L 3366 3988 
Q 3128 4100 2886 4159 
Q 2644 4219 2406 4219 
Q 1781 4219 1451 3797 
Q 1122 3375 1075 2522 
Q 1259 2794 1537 2939 
Q 1816 3084 2150 3084 
Q 2853 3084 3261 2657 
Q 3669 2231 3669 1497 
Q 3669 778 3244 343 
Q 2819 -91 2113 -91 
Q 1303 -91 875 529 
Q 447 1150 447 2328 
Q 447 3434 972 4092 
Q 1497 4750 2381 4750 
Q 2619 4750 2861 4703 
Q 3103 4656 3366 4563 
z
" transform="scale(0.015625)"/>
       </defs>
       <use xlink:href="#DejaVuSans-31"/>
       <use xlink:href="#DejaVuSans-36" x="63.623047"/>
      </g>
     </g>
    </g>
    <g id="text_6">
     <!-- Number of Threads -->
     <g transform="translate(146.813654 239.108906) scale(0.09 -0.09)">
      <defs>
       <path id="DejaVuSans-4e" d="M 628 4666 
L 1478 4666 
L 3547 763 
L 3547 4666 
L 4159 4666 
L 4159 0 
L 3309 0 
L 1241 3903 
L 1241 0 
L 628 0 
L 628 4666 
z
" transform="scale(0.015625)"/>
       <path id="DejaVuSans-75" d="M 544 1381 
L 544 3500 
L 1119 3500 
L 1119 1403 
Q 1119 906 1312 657 
Q 1506 409 1894 409 
Q 2359 409 2629 706 
Q 2900 1003 2900 1516 
L 2900 3500 
L 3475 3500 
L 3475 0 
L 2900 0 
L 2900 538 
Q 2691 219 2414 64 
Q 2138 -91 1772 -91 
Q 1169 -91 856 284 
Q 544 659 544 1381 
z
M 1991 3584 
L 1991 3584 
z
" transform="scale(0.015625)"/>
       <path id="DejaVuSans-6d" d="M 3328 2828 
Q 3544 3216 3844 3400 
Q 4144 3584 4550 3584 
Q 5097 3584 5394 3201 
Q 5691 2819 5691 2113 
L 5691 0 
L 5113 0 
L 5113 2094 
Q 5113 2597 4934 2840 
Q 4756 3084 4391 3084 
Q 3944 3084 3684 2787 
Q 3425 2491 3425 1978 
L 3425 0 
L 2847 0 
L 2847 2094 
Q 2847 2600 2669 2842 
Q 2491 3084 2119 3084 
Q 1678 3084 1418 2786 
Q 1159 2488 1159 1978 
L 1159 0 
L 581 0 
L 581 3500 
L 1159 3500 
L 1159 2956 
Q 1356 3278 1631 3431 
Q 1906 3584 2284 3584 
Q 2666 3584 2933 3390 
Q 3200 3197 3328 2828 
z
" transform="scale(0.015625)"/>
       <path id="DejaVuSans-62" d="M 3116 1747 
Q 3116 2381 2855 2742 
Q 2594 3103 2138 3103 
Q 1681 3103 1420 2742 
Q 1159 2381 1159 1747 
Q 1159 1113 1420 752 
Q 1681 391 2138 391 
Q 2594 391 2855 752 
Q 3116 1113 3116 1747 
z
M 1159 2969 
Q 1341 3281 1617 3432 
Q 1894 3584 2278 3584 
Q 2916 3584 3314 3078 
Q 3713 2572 3713 1747 
Q 3713 922 3314 415 
Q 2916 -91 2278 -91 
Q 1894 -91 1617 61 
Q 1341 213 1159 525 
L 1159 0 
L 581 0 
L 581 4863 
L 1159 4863 
L 1159 2969 
z
" transform="scale(0.015625)"/>
       <path id="DejaVuSans-65" d="M 3597 1894 
L 3597 1613 
L 953 1613 
Q 991 1019 1311 708 
Q 1631 397 2203 397 
Q 2534 397 2845 478 
Q 3156 559 3463 722 
L 3463 178 
Q 3153 47 2828 -22 
Q 2503 -91 2169 -91 
Q 1331 -91 842 396 
Q 353 884 353 1716 
Q 353 2575 817 3079 
Q 1281 3584 2069 3584 
Q 2775 3584 3186 3129 
Q 3597 2675 3597 1894 
z
M 3022 2063 
Q 3016 2534 2758 2815 
Q 2500 3097 2075 3097 
Q 1594 3097 1305 2825 
Q 1016 2553 972 2059 
L 3022 2063 
z
" transform="scale(0.015625)"/>
       <path id="DejaVuSans-72" d="M 2631 2963 
Q 2534 3019 2420 3045 
Q 2306 3072 2169 3072 
Q 1681 3072 1420 2755 
Q 1159 2438 1159 1844 
L 1159 0 
L 581 0 
L 581 3500 
L 1159 3500 
L 1159 2956 
Q 1341 3275 1631 3429 
Q 1922 3584 2338 3584 
Q 2397 3584 2469 3576 
Q 2541 3569 2628 3553 
L 2631 2963 
z
" transform="scale(0.015625)"/>
       <path id="DejaVuSans-20" transform="scale(0.015625)"/>
       <path id="DejaVuSans-6f" d="M 1959 3097 
Q 1497 3097 1228 2736 
Q 959 2375 959 1747 
Q 959 1119 1226 758 
Q 1494 397 1959 397 
Q 2419 397 2687 759 
Q 2956 1122 2956 1747 
Q 2956 2369 2687 2733 
Q 2419 3097 1959 3097 
z
M 1959 3584 
Q 2709 3584 3137 3096 
Q 3566 2609 3566 1747 
Q 3566 888 3137 398 
Q 2709 -91 1959 -91 
Q 1206 -91 779 398 
Q 353 888 353 1747 
Q 353 2609 779 3096 
Q 1206 3584 1959 3584 
z
" transform="scale(0.015625)"/>
       <path id="DejaVuSans-66" d="M 2375 4863 
L 2375 4384 
L 1825 4384 
Q 1516 4384 1395 4259 
Q 1275 4134 1275 3809 
L 1275 3500 
L 2222 3500 
L 2222 3053 
L 1275 3053 
L 1275 0 
L 697 0 
L 697 3053 
L 147 3053 
L 147 3500 
L 697 3500 
L 697 3744 
Q 697 4328 969 4595 
Q 1241 4863 1831 4863 
L 2375 4863 
z
" transform="scale(0.015625)"/>
       <path id="DejaVuSans-54" d="M -19 4666 
L 3928 4666 
L 3928 4134 
L 2272 4134 
L 2272 0 
L 1638 0 
L 1638 4134 
L -19 4134 
L -19 4666 
z
" transform="scale(0.015625)"/>
       <path id="DejaVuSans-68" d="M 3513 2113 
L 3513 0 
L 2938 0 
L 2938 2094 
Q 2938 2591 2744 2837 
Q 2550 3084 2163 3084 
Q 1697 3084 1428 2787 
Q 1159 2491 1159 1978 
L 1159 0 
L 581 0 
L 581 4863 
L 1159 4863 
L 1159 2956 
Q 1366 3272 1645 3428 
Q 1925 3584 2291 3584 
Q 2894 3584 3203 3211 
Q 3513 2838 3513 2113 
z
" transform="scale(0.015625)"/>
       <path id="DejaVuSans-61" d="M 2194 1759 
Q 1497 1759 1228 1600 
Q 959 1441 959 1056 
Q 959 750 1161 570 
Q 1363 391 1709 391 
Q 2188 391 2477 730 
Q 2766 1069 2766 1631 
L 2766 1759 
L 2194 1759 
z
M 3341 1997 
L 3341 0 
L 2766 0 
L 2766 531 
Q 2569 213 2275 61 
Q 1981 -91 1556 -91 
Q 1019 -91 701 211 
Q 384 513 384 1019 
Q 384 1609 779 1909 
Q 1175 2209 1959 2209 
L 2766 2209 
L 2766 2266 
Q 2766 2663 2505 2880 
Q 2244 3097 1772 3097 
Q 1472 3097 1187 3025 
Q 903 2953 641 2809 
L 641 3341 
Q 956 3463 1253 3523 
Q 1550 3584 1831 3584 
Q 2591 3584 2966 3190 
Q 3341 2797 3341 1997 
z
" transform="scale(0.015625)"/>
       <path id="DejaVuSans-64" d="M 2906 2969 
L 2906 4863 
L 3481 4863 
L 3481 0 
L 2906 0 
L 2906 525 
Q 2725 213 2448 61 
Q 2172 -91 1784 -91 
Q 1150 -91 751 415 
Q 353 922 353 1747 
Q 353 2572 751 3078 
Q 1150 3584 1784 3584 
Q 2172 3584 2448 3432 
Q 2725 3281 2906 2969 
z
M 947 1747 
Q 947 1113 1208 752 
Q 1469 391 1925 391 
Q 2381 391 2643 752 
Q 2906 1113 2906 1747 
Q 2906 2381 2643 2742 
Q 2381 3103 1925 3103 
Q 1469 3103 1208 2742 
Q 947 2381 947 1747 
z
" transform="scale(0.015625)"/>
       <path id="DejaVuSans-73" d="M 2834 3397 
L 2834 2853 
Q 2591 2978 2328 3040 
Q 2066 3103 1784 3103 
Q 1356 3103 1142 2972 
Q 928 2841 928 2578 
Q 928 2378 1081 2264 
Q 1234 2150 1697 2047 
L 1894 2003 
Q 2506 1872 2764 1633 
Q 3022 1394 3022 966 
Q 3022 478 2636 193 
Q 2250 -91 1575 -91 
Q 1294 -91 989 -36 
Q 684 19 347 128 
L 347 722 
Q 666 556 975 473 
Q 1284 391 1588 391 
Q 1994 391 2212 530 
Q 2431 669 2431 922 
Q 2431 1156 2273 1281 
Q 2116 1406 1581 1522 
L 1381 1569 
Q 847 1681 609 1914 
Q 372 2147 372 2553 
Q 372 3047 722 3315 
Q 1072 3584 1716 3584 
Q 2034 3584 2315 3537 
Q 2597 3491 2834 3397 
z
" transform="scale(0.015625)"/>
      </defs>
      <use xlink:href="#DejaVuSans-4e"/>
      <use xlink:href="#DejaVuSans-75" x="74.804688"/>
      <use xlink:href="#DejaVuSans-6d" x="138.183594"/>
      <use xlink:href="#DejaVuSans-62" x="235.595703"/>
      <use xlink:href="#DejaVuSans-65" x="299.072266"/>
      <use xlink:href="#DejaVuSans-72" x="360.595703"/>
      <use xlink:href="#DejaVuSans-20" x="401.708984"/>
      <use xlink:href="#DejaVuSans-6f" x="433.496094"/>
      <use xlink:href="#DejaVuSans-66" x="494.677734"/>
      <use xlink:href="#DejaVuSans-20" x="529.882812"/>
      <use xlink:href="#DejaVuSans-54" x="561.669922"/>
      <use xlink:href="#DejaVuSans-68" x="622.753906"/>
      <use xlink:href="#DejaVuSans-72" x="686.132812"/>
      <use xlink:href="#DejaVuSans-65" x="724.996094"/>
      <use xlink:href="#DejaVuSans-61" x="786.519531"/>
      <use xlink:href="#DejaVuSans-64" x="847.798828"/>
      <use xlink:href="#DejaVuSans-73" x="911.275391"/>
     </g>
    </g>
   </g>
   <g id="matplotlib.axis_2">
    <g id="ytick_1">
     <g id="line2d_6">
      <defs>
       <path id="md2ae8da0ea" d="M 0 0 
L -3.5 0 
" style="stroke: #000000; stroke-width: 0.8"/>
      </defs>
      <g>
       <use xlink:href="#md2ae8da0ea" x="44.442964" y="212.56" style="stroke: #000000; stroke-width: 0.8"/>
      </g>
     </g>
     <g id="text_7">
      <!-- 0.0 -->
      <g transform="translate(23.130152 215.979297) scale(0.09 -0.09)">
       <defs>
        <path id="DejaVuSans-30" d="M 2034 4250 
Q 1547 4250 1301 3770 
Q 1056 3291 1056 2328 
Q 1056 1369 1301 889 
Q 1547 409 2034 409 
Q 2525 409 2770 889 
Q 3016 1369 3016 2328 
Q 3016 3291 2770 3770 
Q 2525 4250 2034 4250 
z
M 2034 4750 
Q 2819 4750 3233 4129 
Q 3647 3509 3647 2328 
Q 3647 1150 3233 529 
Q 2819 -91 2034 -91 
Q 1250 -91 836 529 
Q 422 1150 422 2328 
Q 422 3509 836 4129 
Q 1250 4750 2034 4750 
z
" transform="scale(0.015625)"/>
        <path id="DejaVuSans-2e" d="M 684 794 
L 1344 794 
L 1344 0 
L 684 0 
L 684 794 
z
" transform="scale(0.015625)"/>
       </defs>
       <use xlink:href="#DejaVuSans-30"/>
       <use xlink:href="#DejaVuSans-2e" x="63.623047"/>
       <use xlink:href="#DejaVuSans-30" x="95.410156"/>
      </g>
     </g>
    </g>
    <g id="ytick_2">
     <g id="line2d_7">
      <g>
       <use xlink:href="#md2ae8da0ea" x="44.442964" y="190.993119" style="stroke: #000000; stroke-width: 0.8"/>
      </g>
     </g>
     <g id="text_8">
      <!-- 0.2 -->
      <g transform="translate(23.130152 194.412416) scale(0.09 -0.09)">
       <use xlink:href="#DejaVuSans-30"/>
       <use xlink:href="#DejaVuSans-2e" x="63.623047"/>
       <use xlink:href="#DejaVuSans-32" x="95.410156"/>
      </g>
     </g>
    </g>
    <g id="ytick_3">
     <g id="line2d_8">
      <g>
       <use xlink:href="#md2ae8da0ea" x="44.442964" y="169.426239" style="stroke: #000000; stroke-width: 0.8"/>
      </g>
     </g>
     <g id="text_9">
      <!-- 0.4 -->
      <g transform="translate(23.130152 172.845536) scale(0.09 -0.09)">
       <use xlink:href="#DejaVuSans-30"/>
       <use xlink:href="#DejaVuSans-2e" x="63.623047"/>
       <use xlink:href="#DejaVuSans-34" x="95.410156"/>
      </g>
     </g>
    </g>
    <g id="ytick_4">
     <g id="line2d_9">
      <g>
       <use xlink:href="#md2ae8da0ea" x="44.442964" y="147.859358" style="stroke: #000000; stroke-width: 0.8"/>
      </g>
     </g>
     <g id="text_10">
      <!-- 0.6 -->
      <g transform="translate(23.130152 151.278655) scale(0.09 -0.09)">
       <use xlink:href="#DejaVuSans-30"/>
       <use xlink:href="#DejaVuSans-2e" x="63.623047"/>
       <use xlink:href="#DejaVuSans-36" x="95.410156"/>
      </g>
     </g>
    </g>
    <g id="ytick_5">
     <g id="line2d_10">
      <g>
       <use xlink:href="#md2ae8da0ea" x="44.442964" y="126.292478" style="stroke: #000000; stroke-width: 0.8"/>
      </g>
     </g>
     <g id="text_11">
      <!-- 0.8 -->
      <g transform="translate(23.130152 129.711774) scale(0.09 -0.09)">
       <use xlink:href="#DejaVuSans-30"/>
       <use xlink:href="#DejaVuSans-2e" x="63.623047"/>
       <use xlink:href="#DejaVuSans-38" x="95.410156"/>
      </g>
     </g>
    </g>
    <g id="ytick_6">
     <g id="line2d_11">
      <g>
       <use xlink:href="#md2ae8da0ea" x="44.442964" y="104.725597" style="stroke: #000000; stroke-width: 0.8"/>
      </g>
     </g>
     <g id="text_12">
      <!-- 1.0 -->
      <g transform="translate(23.130152 108.144894) scale(0.09 -0.09)">
       <use xlink:href="#DejaVuSans-31"/>
       <use xlink:href="#DejaVuSans-2e" x="63.623047"/>
       <use xlink:href="#DejaVuSans-30" x="95.410156"/>
      </g>
     </g>
    </g>
    <g id="ytick_7">
     <g id="line2d_12">
      <g>
       <use xlink:href="#md2ae8da0ea" x="44.442964" y="83.158716" style="stroke: #000000; stroke-width: 0.8"/>
      </g>
     </g>
     <g id="text_13">
      <!-- 1.2 -->
      <g transform="translate(23.130152 86.578013) scale(0.09 -0.09)">
       <use xlink:href="#DejaVuSans-31"/>
       <use xlink:href="#DejaVuSans-2e" x="63.623047"/>
       <use xlink:href="#DejaVuSans-32" x="95.410156"/>
      </g>
     </g>
    </g>
    <g id="ytick_8">
     <g id="line2d_13">
      <g>
       <use xlink:href="#md2ae8da0ea" x="44.442964" y="61.591836" style="stroke: #000000; stroke-width: 0.8"/>
      </g>
     </g>
     <g id="text_14">
      <!-- 1.4 -->
      <g transform="translate(23.130152 65.011133) scale(0.09 -0.09)">
       <use xlink:href="#DejaVuSans-31"/>
       <use xlink:href="#DejaVuSans-2e" x="63.623047"/>
       <use xlink:href="#DejaVuSans-34" x="95.410156"/>
      </g>
     </g>
    </g>
    <g id="ytick_9">
     <g id="line2d_14">
      <g>
       <use xlink:href="#md2ae8da0ea" x="44.442964" y="40.024955" style="stroke: #000000; stroke-width: 0.8"/>
      </g>
     </g>
     <g id="text_15">
      <!-- 1.6 -->
      <g transform="translate(23.130152 43.444252) scale(0.09 -0.09)">
       <use xlink:href="#DejaVuSans-31"/>
       <use xlink:href="#DejaVuSans-2e" x="63.623047"/>
       <use xlink:href="#DejaVuSans-36" x="95.410156"/>
      </g>
     </g>
    </g>
    <g id="text_16">
     <!-- Speedup -->
     <g transform="translate(17.258433 138.276875) rotate(-90) scale(0.09 -0.09)">
      <defs>
       <path id="DejaVuSans-53" d="M 3425 4513 
L 3425 3897 
Q 3066 4069 2747 4153 
Q 2428 4238 2131 4238 
Q 1616 4238 1336 4038 
Q 1056 3838 1056 3469 
Q 1056 3159 1242 3001 
Q 1428 2844 1947 2747 
L 2328 2669 
Q 3034 2534 3370 2195 
Q 3706 1856 3706 1288 
Q 3706 609 3251 259 
Q 2797 -91 1919 -91 
Q 1588 -91 1214 -16 
Q 841 59 441 206 
L 441 856 
Q 825 641 1194 531 
Q 1563 422 1919 422 
Q 2459 422 2753 634 
Q 3047 847 3047 1241 
Q 3047 1584 2836 1778 
Q 2625 1972 2144 2069 
L 1759 2144 
Q 1053 2284 737 2584 
Q 422 2884 422 3419 
Q 422 4038 858 4394 
Q 1294 4750 2059 4750 
Q 2388 4750 2728 4690 
Q 3069 4631 3425 4513 
z
" transform="scale(0.015625)"/>
       <path id="DejaVuSans-70" d="M 1159 525 
L 1159 -1331 
L 581 -1331 
L 581 3500 
L 1159 3500 
L 1159 2969 
Q 1341 3281 1617 3432 
Q 1894 3584 2278 3584 
Q 2916 3584 3314 3078 
Q 3713 2572 3713 1747 
Q 3713 922 3314 415 
Q 2916 -91 2278 -91 
Q 1894 -91 1617 61 
Q 1341 213 1159 525 
z
M 3116 1747 
Q 3116 2381 2855 2742 
Q 2594 3103 2138 3103 
Q 1681 3103 1420 2742 
Q 1159 2381 1159 1747 
Q 1159 1113 1420 752 
Q 1681 391 2138 391 
Q 2594 391 2855 752 
Q 3116 1113 3116 1747 
z
" transform="scale(0.015625)"/>
      </defs>
      <use xlink:href="#DejaVuSans-53"/>
      <use xlink:href="#DejaVuSans-70" x="63.476562"/>
      <use xlink:href="#DejaVuSans-65" x="126.953125"/>
      <use xlink:href="#DejaVuSans-65" x="188.476562"/>
      <use xlink:href="#DejaVuSans-64" x="250"/>
      <use xlink:href="#DejaVuSans-75" x="313.476562"/>
      <use xlink:href="#DejaVuSans-70" x="376.855469"/>
     </g>
    </g>
   </g>
   <g id="LineCollection_1">
    <path d="M 57.69047 70.453405 
L 57.69047 65.087851 
" clip-path="url(#pcc5bf2bee8)" style="fill: none; stroke: #e41a1c; stroke-width: 1.5"/>
    <path d="M 123.927999 31.226346 
L 123.927999 28.563175 
" clip-path="url(#pcc5bf2bee8)" style="fill: none; stroke: #e41a1c; stroke-width: 1.5"/>
    <path d="M 190.165529 40.166895 
L 190.165529 35.113305 
" clip-path="url(#pcc5bf2bee8)" style="fill: none; stroke: #e41a1c; stroke-width: 1.5"/>
    <path d="M 256.403058 42.419202 
L 256.403058 38.130084 
" clip-path="url(#pcc5bf2bee8)" style="fill: none; stroke: #e41a1c; stroke-width: 1.5"/>
    <path d="M 322.640587 36.43668 
L 322.640587 34.749808 
" clip-path="url(#pcc5bf2bee8)" style="fill: none; stroke: #e41a1c; stroke-width: 1.5"/>
   </g>
   <g id="line2d_15">
    <defs>
     <path id="m0320871e91" d="M 2 0 
L -2 -0 
" style="stroke: #e41a1c"/>
    </defs>
    <g clip-path="url(#pcc5bf2bee8)">
     <use xlink:href="#m0320871e91" x="57.69047" y="70.453405" style="fill: #e41a1c; stroke: #e41a1c"/>
     <use xlink:href="#m0320871e91" x="123.927999" y="31.226346" style="fill: #e41a1c; stroke: #e41a1c"/>
     <use xlink:href="#m0320871e91" x="190.165529" y="40.166895" style="fill: #e41a1c; stroke: #e41a1c"/>
     <use xlink:href="#m0320871e91" x="256.403058" y="42.419202" style="fill: #e41a1c; stroke: #e41a1c"/>
     <use xlink:href="#m0320871e91" x="322.640587" y="36.43668" style="fill: #e41a1c; stroke: #e41a1c"/>
    </g>
   </g>
   <g id="line2d_16">
    <g clip-path="url(#pcc5bf2bee8)">
     <use xlink:href="#m0320871e91" x="57.69047" y="65.087851" style="fill: #e41a1c; stroke: #e41a1c"/>
     <use xlink:href="#m0320871e91" x="123.927999" y="28.563175" style="fill: #e41a1c; stroke: #e41a1c"/>
     <use xlink:href="#m0320871e91" x="190.165529" y="35.113305" style="fill: #e41a1c; stroke: #e41a1c"/>
     <use xlink:href="#m0320871e91" x="256.403058" y="38.130084" style="fill: #e41a1c; stroke: #e41a1c"/>
     <use xlink:href="#m0320871e91" x="322.640587" y="34.749808" style="fill: #e41a1c; stroke: #e41a1c"/>
    </g>
   </g>
   <g id="LineCollection_2">
    <path d="M 57.69047 112.626669 
L 57.69047 96.343598 
" clip-path="url(#pcc5bf2bee8)" style="fill: none; stroke: #ff7f00; stroke-width: 1.5"/>
    <path d="M 123.927999 95.521039 
L 123.927999 92.637451 
" clip-path="url(#pcc5bf2bee8)" style="fill: none; stroke: #ff7f00; stroke-width: 1.5"/>
    <path d="M 190.165529 92.817819 
L 190.165529 91.397068 
" clip-path="url(#pcc5bf2bee8)" style="fill: none; stroke: #ff7f00; stroke-width: 1.5"/>
    <path d="M 256.403058 95.197721 
L 256.403058 94.755193 
" clip-path="url(#pcc5bf2bee8)" style="fill: none; stroke: #ff7f00; stroke-width: 1.5"/>
    <path d="M 322.640587 102.016954 
L 322.640587 100.942502 
" clip-path="url(#pcc5bf2bee8)" style="fill: none; stroke: #ff7f00; stroke-width: 1.5"/>
   </g>
   <g id="line2d_17">
    <defs>
     <path id="m30829c1a38" d="M 2 0 
L -2 -0 
" style="stroke: #ff7f00"/>
    </defs>
    <g clip-path="url(#pcc5bf2bee8)">
     <use xlink:href="#m30829c1a38" x="57.69047" y="112.626669" style="fill: #ff7f00; stroke: #ff7f00"/>
     <use xlink:href="#m30829c1a38" x="123.927999" y="95.521039" style="fill: #ff7f00; stroke: #ff7f00"/>
     <use xlink:href="#m30829c1a38" x="190.165529" y="92.817819" style="fill: #ff7f00; stroke: #ff7f00"/>
     <use xlink:href="#m30829c1a38" x="256.403058" y="95.197721" style="fill: #ff7f00; stroke: #ff7f00"/>
     <use xlink:href="#m30829c1a38" x="322.640587" y="102.016954" style="fill: #ff7f00; stroke: #ff7f00"/>
    </g>
   </g>
   <g id="line2d_18">
    <g clip-path="url(#pcc5bf2bee8)">
     <use xlink:href="#m30829c1a38" x="57.69047" y="96.343598" style="fill: #ff7f00; stroke: #ff7f00"/>
     <use xlink:href="#m30829c1a38" x="123.927999" y="92.637451" style="fill: #ff7f00; stroke: #ff7f00"/>
     <use xlink:href="#m30829c1a38" x="190.165529" y="91.397068" style="fill: #ff7f00; stroke: #ff7f00"/>
     <use xlink:href="#m30829c1a38" x="256.403058" y="94.755193" style="fill: #ff7f00; stroke: #ff7f00"/>
     <use xlink:href="#m30829c1a38" x="322.640587" y="100.942502" style="fill: #ff7f00; stroke: #ff7f00"/>
    </g>
   </g>
   <g id="LineCollection_3">
    <path d="M 57.69047 106.737142 
L 57.69047 101.320053 
" clip-path="url(#pcc5bf2bee8)" style="fill: none; stroke: #377eb8; stroke-width: 1.5"/>
    <path d="M 123.927999 100.647875 
L 123.927999 97.726739 
" clip-path="url(#pcc5bf2bee8)" style="fill: none; stroke: #377eb8; stroke-width: 1.5"/>
    <path d="M 190.165529 100.416528 
L 190.165529 97.674388 
" clip-path="url(#pcc5bf2bee8)" style="fill: none; stroke: #377eb8; stroke-width: 1.5"/>
    <path d="M 256.403058 96.039038 
L 256.403058 91.52688 
" clip-path="url(#pcc5bf2bee8)" style="fill: none; stroke: #377eb8; stroke-width: 1.5"/>
    <path d="M 322.640587 99.658103 
L 322.640587 90.748304 
" clip-path="url(#pcc5bf2bee8)" style="fill: none; stroke: #377eb8; stroke-width: 1.5"/>
   </g>
   <g id="line2d_19">
    <defs>
     <path id="m00fe45fa00" d="M 2 0 
L -2 -0 
" style="stroke: #377eb8"/>
    </defs>
    <g clip-path="url(#pcc5bf2bee8)">
     <use xlink:href="#m00fe45fa00" x="57.69047" y="106.737142" style="fill: #377eb8; stroke: #377eb8"/>
     <use xlink:href="#m00fe45fa00" x="123.927999" y="100.647875" style="fill: #377eb8; stroke: #377eb8"/>
     <use xlink:href="#m00fe45fa00" x="190.165529" y="100.416528" style="fill: #377eb8; stroke: #377eb8"/>
     <use xlink:href="#m00fe45fa00" x="256.403058" y="96.039038" style="fill: #377eb8; stroke: #377eb8"/>
     <use xlink:href="#m00fe45fa00" x="322.640587" y="99.658103" style="fill: #377eb8; stroke: #377eb8"/>
    </g>
   </g>
   <g id="line2d_20">
    <g clip-path="url(#pcc5bf2bee8)">
     <use xlink:href="#m00fe45fa00" x="57.69047" y="101.320053" style="fill: #377eb8; stroke: #377eb8"/>
     <use xlink:href="#m00fe45fa00" x="123.927999" y="97.726739" style="fill: #377eb8; stroke: #377eb8"/>
     <use xlink:href="#m00fe45fa00" x="190.165529" y="97.674388" style="fill: #377eb8; stroke: #377eb8"/>
     <use xlink:href="#m00fe45fa00" x="256.403058" y="91.52688" style="fill: #377eb8; stroke: #377eb8"/>
     <use xlink:href="#m00fe45fa00" x="322.640587" y="90.748304" style="fill: #377eb8; stroke: #377eb8"/>
    </g>
   </g>
   <g id="line2d_21">
    <path d="M 57.69047 68.918304 
L 123.927999 30.475838 
L 190.165529 36.892287 
L 256.403058 41.753236 
L 322.640587 35.859936 
" clip-path="url(#pcc5bf2bee8)" style="fill: none; stroke: #e41a1c; stroke-width: 1.5; stroke-linecap: square"/>
    <defs>
     <path id="m78dacdf82d" d="M 0 3 
C 0.795609 3 1.55874 2.683901 2.12132 2.12132 
C 2.683901 1.55874 3 0.795609 3 0 
C 3 -0.795609 2.683901 -1.55874 2.12132 -2.12132 
C 1.55874 -2.683901 0.795609 -3 0 -3 
C -0.795609 -3 -1.55874 -2.683901 -2.12132 -2.12132 
C -2.683901 -1.55874 -3 -0.795609 -3 0 
C -3 0.795609 -2.683901 1.55874 -2.12132 2.12132 
C -1.55874 2.683901 -0.795609 3 0 3 
z
" style="stroke: #e41a1c"/>
    </defs>
    <g clip-path="url(#pcc5bf2bee8)">
     <use xlink:href="#m78dacdf82d" x="57.69047" y="68.918304" style="fill-opacity: 0; stroke: #e41a1c"/>
     <use xlink:href="#m78dacdf82d" x="123.927999" y="30.475838" style="fill-opacity: 0; stroke: #e41a1c"/>
     <use xlink:href="#m78dacdf82d" x="190.165529" y="36.892287" style="fill-opacity: 0; stroke: #e41a1c"/>
     <use xlink:href="#m78dacdf82d" x="256.403058" y="41.753236" style="fill-opacity: 0; stroke: #e41a1c"/>
     <use xlink:href="#m78dacdf82d" x="322.640587" y="35.859936" style="fill-opacity: 0; stroke: #e41a1c"/>
    </g>
   </g>
   <g id="line2d_22">
    <path d="M 57.69047 103.247898 
L 123.927999 93.351625 
L 190.165529 92.230127 
L 256.403058 94.961019 
L 322.640587 101.461459 
" clip-path="url(#pcc5bf2bee8)" style="fill: none; stroke: #ff7f00; stroke-width: 1.5; stroke-linecap: square"/>
    <defs>
     <path id="mcdfb417857" d="M 0 3 
C 0.795609 3 1.55874 2.683901 2.12132 2.12132 
C 2.683901 1.55874 3 0.795609 3 0 
C 3 -0.795609 2.683901 -1.55874 2.12132 -2.12132 
C 1.55874 -2.683901 0.795609 -3 0 -3 
C -0.795609 -3 -1.55874 -2.683901 -2.12132 -2.12132 
C -2.683901 -1.55874 -3 -0.795609 -3 0 
C -3 0.795609 -2.683901 1.55874 -2.12132 2.12132 
C -1.55874 2.683901 -0.795609 3 0 3 
z
" style="stroke: #ff7f00"/>
    </defs>
    <g clip-path="url(#pcc5bf2bee8)">
     <use xlink:href="#mcdfb417857" x="57.69047" y="103.247898" style="fill-opacity: 0; stroke: #ff7f00"/>
     <use xlink:href="#mcdfb417857" x="123.927999" y="93.351625" style="fill-opacity: 0; stroke: #ff7f00"/>
     <use xlink:href="#mcdfb417857" x="190.165529" y="92.230127" style="fill-opacity: 0; stroke: #ff7f00"/>
     <use xlink:href="#mcdfb417857" x="256.403058" y="94.961019" style="fill-opacity: 0; stroke: #ff7f00"/>
     <use xlink:href="#mcdfb417857" x="322.640587" y="101.461459" style="fill-opacity: 0; stroke: #ff7f00"/>
    </g>
   </g>
   <g id="line2d_23">
    <path d="M 57.69047 105.367086 
L 123.927999 99.764866 
L 190.165529 98.217939 
L 256.403058 92.202815 
L 322.640587 91.799751 
" clip-path="url(#pcc5bf2bee8)" style="fill: none; stroke: #377eb8; stroke-width: 1.5; stroke-linecap: square"/>
    <defs>
     <path id="m95800dd067" d="M 0 3 
C 0.795609 3 1.55874 2.683901 2.12132 2.12132 
C 2.683901 1.55874 3 0.795609 3 0 
C 3 -0.795609 2.683901 -1.55874 2.12132 -2.12132 
C 1.55874 -2.683901 0.795609 -3 0 -3 
C -0.795609 -3 -1.55874 -2.683901 -2.12132 -2.12132 
C -2.683901 -1.55874 -3 -0.795609 -3 0 
C -3 0.795609 -2.683901 1.55874 -2.12132 2.12132 
C -1.55874 2.683901 -0.795609 3 0 3 
z
" style="stroke: #377eb8"/>
    </defs>
    <g clip-path="url(#pcc5bf2bee8)">
     <use xlink:href="#m95800dd067" x="57.69047" y="105.367086" style="fill-opacity: 0; stroke: #377eb8"/>
     <use xlink:href="#m95800dd067" x="123.927999" y="99.764866" style="fill-opacity: 0; stroke: #377eb8"/>
     <use xlink:href="#m95800dd067" x="190.165529" y="98.217939" style="fill-opacity: 0; stroke: #377eb8"/>
     <use xlink:href="#m95800dd067" x="256.403058" y="92.202815" style="fill-opacity: 0; stroke: #377eb8"/>
     <use xlink:href="#m95800dd067" x="322.640587" y="91.799751" style="fill-opacity: 0; stroke: #377eb8"/>
    </g>
   </g>
   <g id="patch_3">
    <path d="M 44.442964 212.56 
L 44.442964 24.36 
" style="fill: none; stroke: #000000; stroke-width: 0.8; stroke-linejoin: miter; stroke-linecap: square"/>
   </g>
   <g id="patch_4">
    <path d="M 335.888093 212.56 
L 335.888093 24.36 
" style="fill: none; stroke: #000000; stroke-width: 0.8; stroke-linejoin: miter; stroke-linecap: square"/>
   </g>
   <g id="patch_5">
    <path d="M 44.442964 212.56 
L 335.888093 212.56 
" style="fill: none; stroke: #000000; stroke-width: 0.8; stroke-linejoin: miter; stroke-linecap: square"/>
   </g>
   <g id="patch_6">
    <path d="M 44.442964 24.36 
L 335.888093 24.36 
" style="fill: none; stroke: #000000; stroke-width: 0.8; stroke-linejoin: miter; stroke-linecap: square"/>
   </g>
   <g id="text_17">
    <!-- Speedup at removing the IO device -->
    <g transform="translate(94.401591 18.36) scale(0.108 -0.108)">
     <defs>
      <path id="DejaVuSans-74" d="M 1172 4494 
L 1172 3500 
L 2356 3500 
L 2356 3053 
L 1172 3053 
L 1172 1153 
Q 1172 725 1289 603 
Q 1406 481 1766 481 
L 2356 481 
L 2356 0 
L 1766 0 
Q 1100 0 847 248 
Q 594 497 594 1153 
L 594 3053 
L 172 3053 
L 172 3500 
L 594 3500 
L 594 4494 
L 1172 4494 
z
" transform="scale(0.015625)"/>
      <path id="DejaVuSans-76" d="M 191 3500 
L 800 3500 
L 1894 563 
L 2988 3500 
L 3597 3500 
L 2284 0 
L 1503 0 
L 191 3500 
z
" transform="scale(0.015625)"/>
      <path id="DejaVuSans-69" d="M 603 3500 
L 1178 3500 
L 1178 0 
L 603 0 
L 603 3500 
z
M 603 4863 
L 1178 4863 
L 1178 4134 
L 603 4134 
L 603 4863 
z
" transform="scale(0.015625)"/>
      <path id="DejaVuSans-6e" d="M 3513 2113 
L 3513 0 
L 2938 0 
L 2938 2094 
Q 2938 2591 2744 2837 
Q 2550 3084 2163 3084 
Q 1697 3084 1428 2787 
Q 1159 2491 1159 1978 
L 1159 0 
L 581 0 
L 581 3500 
L 1159 3500 
L 1159 2956 
Q 1366 3272 1645 3428 
Q 1925 3584 2291 3584 
Q 2894 3584 3203 3211 
Q 3513 2838 3513 2113 
z
" transform="scale(0.015625)"/>
      <path id="DejaVuSans-67" d="M 2906 1791 
Q 2906 2416 2648 2759 
Q 2391 3103 1925 3103 
Q 1463 3103 1205 2759 
Q 947 2416 947 1791 
Q 947 1169 1205 825 
Q 1463 481 1925 481 
Q 2391 481 2648 825 
Q 2906 1169 2906 1791 
z
M 3481 434 
Q 3481 -459 3084 -895 
Q 2688 -1331 1869 -1331 
Q 1566 -1331 1297 -1286 
Q 1028 -1241 775 -1147 
L 775 -588 
Q 1028 -725 1275 -790 
Q 1522 -856 1778 -856 
Q 2344 -856 2625 -561 
Q 2906 -266 2906 331 
L 2906 616 
Q 2728 306 2450 153 
Q 2172 0 1784 0 
Q 1141 0 747 490 
Q 353 981 353 1791 
Q 353 2603 747 3093 
Q 1141 3584 1784 3584 
Q 2172 3584 2450 3431 
Q 2728 3278 2906 2969 
L 2906 3500 
L 3481 3500 
L 3481 434 
z
" transform="scale(0.015625)"/>
      <path id="DejaVuSans-49" d="M 628 4666 
L 1259 4666 
L 1259 0 
L 628 0 
L 628 4666 
z
" transform="scale(0.015625)"/>
      <path id="DejaVuSans-4f" d="M 2522 4238 
Q 1834 4238 1429 3725 
Q 1025 3213 1025 2328 
Q 1025 1447 1429 934 
Q 1834 422 2522 422 
Q 3209 422 3611 934 
Q 4013 1447 4013 2328 
Q 4013 3213 3611 3725 
Q 3209 4238 2522 4238 
z
M 2522 4750 
Q 3503 4750 4090 4092 
Q 4678 3434 4678 2328 
Q 4678 1225 4090 567 
Q 3503 -91 2522 -91 
Q 1538 -91 948 565 
Q 359 1222 359 2328 
Q 359 3434 948 4092 
Q 1538 4750 2522 4750 
z
" transform="scale(0.015625)"/>
      <path id="DejaVuSans-63" d="M 3122 3366 
L 3122 2828 
Q 2878 2963 2633 3030 
Q 2388 3097 2138 3097 
Q 1578 3097 1268 2742 
Q 959 2388 959 1747 
Q 959 1106 1268 751 
Q 1578 397 2138 397 
Q 2388 397 2633 464 
Q 2878 531 3122 666 
L 3122 134 
Q 2881 22 2623 -34 
Q 2366 -91 2075 -91 
Q 1284 -91 818 406 
Q 353 903 353 1747 
Q 353 2603 823 3093 
Q 1294 3584 2113 3584 
Q 2378 3584 2631 3529 
Q 2884 3475 3122 3366 
z
" transform="scale(0.015625)"/>
     </defs>
     <use xlink:href="#DejaVuSans-53"/>
     <use xlink:href="#DejaVuSans-70" x="63.476562"/>
     <use xlink:href="#DejaVuSans-65" x="126.953125"/>
     <use xlink:href="#DejaVuSans-65" x="188.476562"/>
     <use xlink:href="#DejaVuSans-64" x="250"/>
     <use xlink:href="#DejaVuSans-75" x="313.476562"/>
     <use xlink:href="#DejaVuSans-70" x="376.855469"/>
     <use xlink:href="#DejaVuSans-20" x="440.332031"/>
     <use xlink:href="#DejaVuSans-61" x="472.119141"/>
     <use xlink:href="#DejaVuSans-74" x="533.398438"/>
     <use xlink:href="#DejaVuSans-20" x="572.607422"/>
     <use xlink:href="#DejaVuSans-72" x="604.394531"/>
     <use xlink:href="#DejaVuSans-65" x="643.257812"/>
     <use xlink:href="#DejaVuSans-6d" x="704.78125"/>
     <use xlink:href="#DejaVuSans-6f" x="802.193359"/>
     <use xlink:href="#DejaVuSans-76" x="863.375"/>
     <use xlink:href="#DejaVuSans-69" x="922.554688"/>
     <use xlink:href="#DejaVuSans-6e" x="950.337891"/>
     <use xlink:href="#DejaVuSans-67" x="1013.716797"/>
     <use xlink:href="#DejaVuSans-20" x="1077.193359"/>
     <use xlink:href="#DejaVuSans-74" x="1108.980469"/>
     <use xlink:href="#DejaVuSans-68" x="1148.189453"/>
     <use xlink:href="#DejaVuSans-65" x="1211.568359"/>
     <use xlink:href="#DejaVuSans-20" x="1273.091797"/>
     <use xlink:href="#DejaVuSans-49" x="1304.878906"/>
     <use xlink:href="#DejaVuSans-4f" x="1334.371094"/>
     <use xlink:href="#DejaVuSans-20" x="1413.082031"/>
     <use xlink:href="#DejaVuSans-64" x="1444.869141"/>
     <use xlink:href="#DejaVuSans-65" x="1508.345703"/>
     <use xlink:href="#DejaVuSans-76" x="1569.869141"/>
     <use xlink:href="#DejaVuSans-69" x="1629.048828"/>
     <use xlink:href="#DejaVuSans-63" x="1656.832031"/>
     <use xlink:href="#DejaVuSans-65" x="1711.8125"/>
    </g>
   </g>
   <g id="legend_1">
    <g id="patch_7">
     <path d="M 50.742964 208.06 
L 211.002027 208.06 
Q 212.802027 208.06 212.802027 206.26 
L 212.802027 167.529063 
Q 212.802027 165.729062 211.002027 165.729062 
L 50.742964 165.729062 
Q 48.942964 165.729062 48.942964 167.529063 
L 48.942964 206.26 
Q 48.942964 208.06 50.742964 208.06 
z
" style="fill: #ffffff; opacity: 0.8; stroke: #cccccc; stroke-linejoin: miter"/>
    </g>
    <g id="LineCollection_4">
     <path d="M 61.542964 177.517656 
L 61.542964 168.517656 
" style="fill: none; stroke: #e41a1c; stroke-width: 1.5"/>
    </g>
    <g id="line2d_24">
     <g>
      <use xlink:href="#m0320871e91" x="61.542964" y="177.517656" style="fill: #e41a1c; stroke: #e41a1c"/>
     </g>
    </g>
    <g id="line2d_25">
     <g>
      <use xlink:href="#m0320871e91" x="61.542964" y="168.517656" style="fill: #e41a1c; stroke: #e41a1c"/>
     </g>
    </g>
    <g id="line2d_26">
     <path d="M 52.542964 173.017656 
L 70.542964 173.017656 
" style="fill: none; stroke: #e41a1c; stroke-width: 1.5; stroke-linecap: square"/>
    </g>
    <g id="line2d_27">
     <g>
      <use xlink:href="#m78dacdf82d" x="61.542964" y="173.017656" style="fill-opacity: 0; stroke: #e41a1c"/>
     </g>
    </g>
    <g id="text_18">
     <!-- compression level 0 -->
     <g transform="translate(77.742964 176.167656) scale(0.09 -0.09)">
      <defs>
       <path id="DejaVuSans-6c" d="M 603 4863 
L 1178 4863 
L 1178 0 
L 603 0 
L 603 4863 
z
" transform="scale(0.015625)"/>
      </defs>
      <use xlink:href="#DejaVuSans-63"/>
      <use xlink:href="#DejaVuSans-6f" x="54.980469"/>
      <use xlink:href="#DejaVuSans-6d" x="116.162109"/>
      <use xlink:href="#DejaVuSans-70" x="213.574219"/>
      <use xlink:href="#DejaVuSans-72" x="277.050781"/>
      <use xlink:href="#DejaVuSans-65" x="315.914062"/>
      <use xlink:href="#DejaVuSans-73" x="377.4375"/>
      <use xlink:href="#DejaVuSans-73" x="429.537109"/>
      <use xlink:href="#DejaVuSans-69" x="481.636719"/>
      <use xlink:href="#DejaVuSans-6f" x="509.419922"/>
      <use xlink:href="#DejaVuSans-6e" x="570.601562"/>
      <use xlink:href="#DejaVuSans-20" x="633.980469"/>
      <use xlink:href="#DejaVuSans-6c" x="665.767578"/>
      <use xlink:href="#DejaVuSans-65" x="693.550781"/>
      <use xlink:href="#DejaVuSans-76" x="755.074219"/>
      <use xlink:href="#DejaVuSans-65" x="814.253906"/>
      <use xlink:href="#DejaVuSans-6c" x="875.777344"/>
      <use xlink:href="#DejaVuSans-20" x="903.560547"/>
      <use xlink:href="#DejaVuSans-30" x="935.347656"/>
     </g>
    </g>
    <g id="LineCollection_5">
     <path d="M 61.542964 190.727969 
L 61.542964 181.727969 
" style="fill: none; stroke: #ff7f00; stroke-width: 1.5"/>
    </g>
    <g id="line2d_28">
     <g>
      <use xlink:href="#m30829c1a38" x="61.542964" y="190.727969" style="fill: #ff7f00; stroke: #ff7f00"/>
     </g>
    </g>
    <g id="line2d_29">
     <g>
      <use xlink:href="#m30829c1a38" x="61.542964" y="181.727969" style="fill: #ff7f00; stroke: #ff7f00"/>
     </g>
    </g>
    <g id="line2d_30">
     <path d="M 52.542964 186.227969 
L 70.542964 186.227969 
" style="fill: none; stroke: #ff7f00; stroke-width: 1.5; stroke-linecap: square"/>
    </g>
    <g id="line2d_31">
     <g>
      <use xlink:href="#mcdfb417857" x="61.542964" y="186.227969" style="fill-opacity: 0; stroke: #ff7f00"/>
     </g>
    </g>
    <g id="text_19">
     <!-- compression level 1 -->
     <g transform="translate(77.742964 189.377969) scale(0.09 -0.09)">
      <use xlink:href="#DejaVuSans-63"/>
      <use xlink:href="#DejaVuSans-6f" x="54.980469"/>
      <use xlink:href="#DejaVuSans-6d" x="116.162109"/>
      <use xlink:href="#DejaVuSans-70" x="213.574219"/>
      <use xlink:href="#DejaVuSans-72" x="277.050781"/>
      <use xlink:href="#DejaVuSans-65" x="315.914062"/>
      <use xlink:href="#DejaVuSans-73" x="377.4375"/>
      <use xlink:href="#DejaVuSans-73" x="429.537109"/>
      <use xlink:href="#DejaVuSans-69" x="481.636719"/>
      <use xlink:href="#DejaVuSans-6f" x="509.419922"/>
      <use xlink:href="#DejaVuSans-6e" x="570.601562"/>
      <use xlink:href="#DejaVuSans-20" x="633.980469"/>
      <use xlink:href="#DejaVuSans-6c" x="665.767578"/>
      <use xlink:href="#DejaVuSans-65" x="693.550781"/>
      <use xlink:href="#DejaVuSans-76" x="755.074219"/>
      <use xlink:href="#DejaVuSans-65" x="814.253906"/>
      <use xlink:href="#DejaVuSans-6c" x="875.777344"/>
      <use xlink:href="#DejaVuSans-20" x="903.560547"/>
      <use xlink:href="#DejaVuSans-31" x="935.347656"/>
     </g>
    </g>
    <g id="LineCollection_6">
     <path d="M 61.542964 203.938281 
L 61.542964 194.938281 
" style="fill: none; stroke: #377eb8; stroke-width: 1.5"/>
    </g>
    <g id="line2d_32">
     <g>
      <use xlink:href="#m00fe45fa00" x="61.542964" y="203.938281" style="fill: #377eb8; stroke: #377eb8"/>
     </g>
    </g>
    <g id="line2d_33">
     <g>
      <use xlink:href="#m00fe45fa00" x="61.542964" y="194.938281" style="fill: #377eb8; stroke: #377eb8"/>
     </g>
    </g>
    <g id="line2d_34">
     <path d="M 52.542964 199.438281 
L 70.542964 199.438281 
" style="fill: none; stroke: #377eb8; stroke-width: 1.5; stroke-linecap: square"/>
    </g>
    <g id="line2d_35">
     <g>
      <use xlink:href="#m95800dd067" x="61.542964" y="199.438281" style="fill-opacity: 0; stroke: #377eb8"/>
     </g>
    </g>
    <g id="text_20">
     <!-- compression level 6 (default) -->
     <g transform="translate(77.742964 202.588281) scale(0.09 -0.09)">
      <defs>
       <path id="DejaVuSans-28" d="M 1984 4856 
Q 1566 4138 1362 3434 
Q 1159 2731 1159 2009 
Q 1159 1288 1364 580 
Q 1569 -128 1984 -844 
L 1484 -844 
Q 1016 -109 783 600 
Q 550 1309 550 2009 
Q 550 2706 781 3412 
Q 1013 4119 1484 4856 
L 1984 4856 
z
" transform="scale(0.015625)"/>
       <path id="DejaVuSans-29" d="M 513 4856 
L 1013 4856 
Q 1481 4119 1714 3412 
Q 1947 2706 1947 2009 
Q 1947 1309 1714 600 
Q 1481 -109 1013 -844 
L 513 -844 
Q 928 -128 1133 580 
Q 1338 1288 1338 2009 
Q 1338 2731 1133 3434 
Q 928 4138 513 4856 
z
" transform="scale(0.015625)"/>
      </defs>
      <use xlink:href="#DejaVuSans-63"/>
      <use xlink:href="#DejaVuSans-6f" x="54.980469"/>
      <use xlink:href="#DejaVuSans-6d" x="116.162109"/>
      <use xlink:href="#DejaVuSans-70" x="213.574219"/>
      <use xlink:href="#DejaVuSans-72" x="277.050781"/>
      <use xlink:href="#DejaVuSans-65" x="315.914062"/>
      <use xlink:href="#DejaVuSans-73" x="377.4375"/>
      <use xlink:href="#DejaVuSans-73" x="429.537109"/>
      <use xlink:href="#DejaVuSans-69" x="481.636719"/>
      <use xlink:href="#DejaVuSans-6f" x="509.419922"/>
      <use xlink:href="#DejaVuSans-6e" x="570.601562"/>
      <use xlink:href="#DejaVuSans-20" x="633.980469"/>
      <use xlink:href="#DejaVuSans-6c" x="665.767578"/>
      <use xlink:href="#DejaVuSans-65" x="693.550781"/>
      <use xlink:href="#DejaVuSans-76" x="755.074219"/>
      <use xlink:href="#DejaVuSans-65" x="814.253906"/>
      <use xlink:href="#DejaVuSans-6c" x="875.777344"/>
      <use xlink:href="#DejaVuSans-20" x="903.560547"/>
      <use xlink:href="#DejaVuSans-36" x="935.347656"/>
      <use xlink:href="#DejaVuSans-20" x="998.970703"/>
      <use xlink:href="#DejaVuSans-28" x="1030.757812"/>
      <use xlink:href="#DejaVuSans-64" x="1069.771484"/>
      <use xlink:href="#DejaVuSans-65" x="1133.248047"/>
      <use xlink:href="#DejaVuSans-66" x="1194.771484"/>
      <use xlink:href="#DejaVuSans-61" x="1229.976562"/>
      <use xlink:href="#DejaVuSans-75" x="1291.255859"/>
      <use xlink:href="#DejaVuSans-6c" x="1354.634766"/>
      <use xlink:href="#DejaVuSans-74" x="1382.417969"/>
      <use xlink:href="#DejaVuSans-29" x="1421.626953"/>
     </g>
    </g>
   </g>
  </g>
 </g>
 <defs>
  <clipPath id="pcc5bf2bee8">
   <rect x="44.442964" y="24.36" width="291.445129" height="188.2"/>
  </clipPath>
 </defs>
</svg>
